<svg width="1174" height="1073" viewBox="0 0 1174 1073" fill="none" xmlns="http://www.w3.org/2000/svg">
<path d="M108.029 291.719C100.429 292.119 80.529 300.553 71.529 304.719C70.6957 305.386 70.0292 306.719 74.0292 306.719C79.0292 306.719 101.529 304.219 113.029 317.719C124.529 331.219 124.837 335.679 130.029 336.219C137.031 336.949 189.154 351.708 197.029 362.219C204.363 362.053 220.529 362.319 226.529 364.719C234.029 367.719 326.029 318.219 347.029 315.219C368.029 312.219 386.529 261.219 446.529 229.719C479.029 206.719 496.529 187.719 492.029 184.219C487.529 180.719 437.029 165.219 455.029 136.219C473.029 107.219 544.029 121.219 547.529 116.219C551.029 111.219 610.529 18.2192 707.529 8.71924C757.529 5.71924 779.529 1.21924 781.029 0.719239C782.529 0.219239 823.668 -2.36054 849.529 6.71924C876.34 16.1323 920.301 25.3388 925.029 28.2193C927.529 31.2193 930.129 42.2192 920.529 62.2192C1070.36 105.359 1134.12 104.951 1150.03 73.7192C1155.89 62.2192 1155.93 40.2192 1119.53 36.2192C1108.53 36.2192 1117.03 28.7192 1125.03 30.2192C1133.03 31.7192 1144.94 35.3017 1151.53 42.7192C1164.72 57.554 1160.03 82.7192 1141.53 93.2192C1119.53 106.719 1074.21 120.309 915.529 76.2192C921.862 82.7192 925.529 97.3192 895.529 105.719C858.029 116.219 849.416 101.075 817.529 133.219C793.96 156.978 765.426 189.77 745.529 202.219C723.362 232.053 679.529 295.319 681.529 309.719C691.029 309.719 705.529 282.219 823.029 269.219C835.029 264.219 837.529 249.219 891.029 225.719C913.029 216.219 921.529 228.219 921.029 229.719C920.529 231.219 963.529 230.219 969.029 245.219C974.529 260.219 966.529 250.719 957.529 253.219C948.529 255.719 920.529 267.719 910.529 271.719C912.029 276.219 951.029 262.719 950.029 274.219C949.229 283.419 930.362 296.719 921.029 302.219C921.696 326.886 919.429 383.019 905.029 410.219C887.029 444.219 828.029 534.219 802.029 542.719C794.029 545.719 936.029 762.219 901.029 765.719C866.029 769.219 412.029 798.719 402.529 771.219C393.029 743.719 381.029 596.719 379.529 596.719C368.098 596.719 171.529 494.219 171.529 474.219C87.1557 470.896 19.8926 421.149 16.0292 374.719C15.3134 366.118 28.029 353.219 26.529 348.719C19.329 340.719 16.8623 320.386 16.529 311.219C16.6273 278.199 65.5289 275.219 88.0289 276.719C110.529 278.22 117.529 291.219 108.029 291.719Z" fill="black"/>
<path d="M74.79 864.031L104.041 867.133V1031.34H78.114L76.3412 1017.49C72.7217 1022.66 68.1789 1026.83 62.7128 1030.01C57.2467 1033.11 50.8941 1034.66 43.6552 1034.66C33.7571 1034.66 25.5579 1032.08 19.0576 1026.91C12.6312 1021.74 7.82987 1014.5 4.6536 1005.19C1.5512 995.809 0 984.913 0 972.504C0 960.537 1.84667 949.901 5.54 940.593C9.23333 931.286 14.5517 923.973 21.4952 918.655C28.5125 913.337 36.8225 910.677 46.4252 910.677C52.1868 910.677 57.4313 911.675 62.1588 913.669C66.8863 915.663 71.0967 918.618 74.79 922.533V864.031ZM54.292 932.505C46.9053 932.505 41.0699 935.718 36.7856 942.145C32.5752 948.497 30.47 958.654 30.47 972.615C30.47 982.439 31.3564 990.306 33.1292 996.215C34.902 1002.05 37.4135 1006.26 40.6636 1008.85C43.9137 1011.43 47.7548 1012.72 52.1868 1012.72C57.062 1012.72 61.3463 1011.28 65.0396 1008.4C68.8068 1005.45 72.0569 1001.79 74.79 997.434V944.028C72.0569 940.409 68.9915 937.602 65.5936 935.607C62.2696 933.539 58.5024 932.505 54.292 932.505Z" fill="black"/>
<path d="M164.562 981.589C165.153 988.902 166.815 994.848 169.548 999.428C172.355 1004.01 175.938 1007.37 180.296 1009.51C184.654 1011.65 189.492 1012.72 194.811 1012.72C200.425 1012.72 205.706 1011.84 210.655 1010.07C215.604 1008.29 220.479 1005.82 225.281 1002.64L237.469 1019.37C232.003 1023.95 225.465 1027.65 217.857 1030.45C210.323 1033.26 202.013 1034.66 192.927 1034.66C180.222 1034.66 169.511 1032.04 160.795 1026.8C152.153 1021.55 145.615 1014.28 141.183 1004.97C136.751 995.661 134.535 984.95 134.535 972.836C134.535 961.165 136.715 950.639 141.073 941.258C145.431 931.877 151.709 924.454 159.909 918.987C168.108 913.447 178.006 910.677 189.603 910.677C200.388 910.677 209.695 913.041 217.525 917.769C225.355 922.496 231.412 929.292 235.696 938.156C239.98 946.946 242.122 957.546 242.122 969.955C242.122 971.95 242.048 973.981 241.901 976.049C241.827 978.118 241.716 979.964 241.568 981.589H164.562ZM189.714 931.286C182.623 931.286 176.787 933.835 172.207 938.931C167.702 943.954 165.042 951.932 164.23 962.864H213.647C213.499 952.966 211.431 945.247 207.442 939.707C203.527 934.093 197.618 931.286 189.714 931.286Z" fill="black"/>
<path d="M378.763 914.001L338.432 1031.34H304.084L263.531 914.001H294.998L321.701 1007.96L348.958 914.001H378.763Z" fill="black"/>
<path d="M605.73 914.001V1010.62H636.643V1031.34H542.131V1010.62H576.479V934.721H543.239V914.001H605.73ZM586.783 854.834C592.175 854.834 596.533 856.496 599.857 859.82C603.255 863.144 604.954 867.281 604.954 872.23C604.954 877.179 603.255 881.352 599.857 884.75C596.533 888.074 592.175 889.736 586.783 889.736C581.391 889.736 576.996 888.074 573.598 884.75C570.2 881.352 568.501 877.179 568.501 872.23C568.501 867.281 570.2 863.144 573.598 859.82C576.996 856.496 581.391 854.834 586.783 854.834Z" fill="black"/>
<path d="M671.126 1031.34V914.001H696.61L698.715 928.516C703.738 922.607 709.389 918.175 715.668 915.22C721.946 912.192 728.705 910.677 735.944 910.677C746.507 910.677 754.558 913.743 760.098 919.874C765.638 925.931 768.408 934.462 768.408 945.469V1031.34H739.157V956.881C739.157 950.972 738.788 946.244 738.049 942.699C737.311 939.079 735.907 936.494 733.839 934.943C731.771 933.318 728.779 932.505 724.864 932.505C721.688 932.505 718.622 933.207 715.668 934.61C712.787 936.014 710.054 937.897 707.468 940.261C704.957 942.625 702.593 945.247 700.377 948.128V1031.34H671.126Z" fill="black"/>
<path d="M871.477 914.001V1010.62H902.39V1031.34H807.877V1010.62H842.225V934.721H808.985V914.001H871.477ZM852.53 854.834C857.922 854.834 862.28 856.496 865.604 859.82C869.002 863.144 870.701 867.281 870.701 872.23C870.701 877.179 869.002 881.352 865.604 884.75C862.28 888.074 857.922 889.736 852.53 889.736C847.138 889.736 842.743 888.074 839.345 884.75C835.947 881.352 834.248 877.179 834.248 872.23C834.248 867.281 835.947 863.144 839.345 859.82C842.743 856.496 847.138 854.834 852.53 854.834Z" fill="black"/>
<path d="M1038.14 1024.8C1033.79 1027.68 1028.5 1030.05 1022.3 1031.89C1016.09 1033.74 1009.37 1034.66 1002.13 1034.66C987.804 1034.66 977.019 1030.97 969.781 1023.58C962.542 1016.12 958.922 1006.22 958.922 993.888V934.721H933.438V914.001H958.922V888.185L988.173 884.639V914.001H1026.95L1023.96 934.721H988.173V993.777C988.173 999.834 989.651 1004.27 992.605 1007.07C995.56 1009.88 1000.32 1011.28 1006.9 1011.28C1011.11 1011.28 1014.95 1010.8 1018.42 1009.84C1021.97 1008.81 1025.18 1007.52 1028.06 1005.97L1038.14 1024.8Z" fill="black"/>
<path d="M1062.99 1072.22V1048.62H1173.79V1072.22H1062.99Z" fill="black"/>
</svg>
