<svg width="150" height="138" viewBox="0 0 150 138" fill="none" xmlns="http://www.w3.org/2000/svg">
<path d="M13.8052 37.2792C12.834 37.3304 10.2909 38.4081 9.14079 38.9405C9.0343 39.0257 8.94913 39.1961 9.46029 39.1961C10.0992 39.1961 12.9746 38.8766 14.4442 40.6018C15.9138 42.327 15.9531 42.8968 16.6166 42.9659C17.5114 43.0591 24.1723 44.9452 25.1786 46.2885C26.1158 46.2672 28.1817 46.3013 28.9485 46.608C29.9069 46.9914 41.6637 40.6657 44.3474 40.2823C47.031 39.8989 49.3951 33.3816 57.0626 29.3561C61.2158 26.4169 63.4522 23.9889 62.8771 23.5416C62.3021 23.0944 55.8486 21.1136 58.1488 17.4077C60.4491 13.7017 69.5223 15.4908 69.9695 14.8518C70.4168 14.2129 78.0204 2.32826 90.4162 1.11424C96.8057 0.73087 99.6172 0.155808 99.8088 0.0919126C100.001 0.0280169 105.258 -0.301657 108.563 0.858661C111.989 2.06157 117.607 3.23808 118.211 3.60619C118.53 3.98956 118.863 5.39526 117.636 7.95108C136.783 13.4639 144.931 13.4118 146.964 9.42069C147.712 7.95108 147.718 5.13967 143.066 4.62851C141.661 4.62851 142.747 3.67007 143.769 3.86176C144.791 4.05345 146.313 4.51125 147.156 5.45915C148.841 7.3549 148.242 10.5708 145.878 11.9126C143.066 13.6378 137.275 15.3745 116.997 9.74016C117.806 10.5708 118.275 12.4366 114.441 13.51C109.649 14.8518 108.548 12.9165 104.473 17.0243C101.461 20.0605 97.8149 24.251 95.2722 25.8419C92.4395 29.6543 86.838 37.7393 87.0936 39.5795C88.3076 39.5795 90.1606 36.0652 105.176 34.4039C106.71 33.765 107.029 31.8481 113.866 28.845C116.677 27.631 117.764 29.1645 117.7 29.3561C117.636 29.5478 123.131 29.42 123.834 31.3369C124.536 33.2538 123.514 32.0398 122.364 32.3592C121.214 32.6787 117.636 34.2122 116.358 34.7234C116.55 35.2984 121.533 33.5733 121.406 35.0429C121.303 36.2185 118.892 37.9182 117.7 38.621C117.785 41.7732 117.495 48.9466 115.655 52.4225C113.355 56.7674 105.815 68.2686 102.492 69.3549C101.47 69.7382 119.617 97.4051 115.144 97.8523C110.671 98.2996 52.6538 102.069 51.4398 98.5552C50.2258 95.0409 48.6923 76.2556 48.5006 76.2556C47.0398 76.2556 21.92 63.157 21.92 60.6011C11.1378 60.1764 2.54211 53.8192 2.04839 47.8859C1.95692 46.7867 3.58186 45.1384 3.39017 44.5633C2.47007 43.541 2.15486 40.9426 2.11226 39.7712C2.12482 35.5515 8.37403 35.1707 11.2493 35.3624C14.1246 35.5541 15.0192 37.2153 13.8052 37.2792Z" fill="black"/>
<path d="M9.55752 110.416L13.2956 110.812V131.796H9.9823L9.75575 130.026C9.29322 130.687 8.71268 131.22 8.01416 131.626C7.31563 132.023 6.50383 132.221 5.57876 132.221C4.31386 132.221 3.26608 131.891 2.4354 131.23C1.61416 130.569 1.00059 129.644 0.59469 128.455C0.19823 127.256 0 125.863 0 124.278C0 122.748 0.235988 121.389 0.707965 120.2C1.17994 119.01 1.85959 118.076 2.7469 117.396C3.64366 116.717 4.7056 116.377 5.93274 116.377C6.66903 116.377 7.33923 116.504 7.94336 116.759C8.54749 117.014 9.08555 117.392 9.55752 117.892V110.416ZM6.93805 119.166C5.9941 119.166 5.24838 119.577 4.70088 120.398C4.16283 121.21 3.89381 122.508 3.89381 124.292C3.89381 125.547 4.00708 126.553 4.23363 127.308C4.46018 128.053 4.78112 128.592 5.19646 128.922C5.6118 129.252 6.10266 129.417 6.66903 129.417C7.29204 129.417 7.83953 129.233 8.3115 128.865C8.79292 128.488 9.20826 128.02 9.55752 127.463V120.639C9.20826 120.176 8.81652 119.817 8.3823 119.563C7.95752 119.298 7.47611 119.166 6.93805 119.166Z" fill="black"/>
<path d="M21.0296 125.439C21.1052 126.373 21.3176 127.133 21.6668 127.718C22.0255 128.304 22.4833 128.733 23.0403 129.007C23.5972 129.281 24.2155 129.417 24.8951 129.417C25.6125 129.417 26.2875 129.304 26.9199 129.078C27.5524 128.851 28.1754 128.535 28.7889 128.129L30.3465 130.267C29.6479 130.852 28.8125 131.324 27.8403 131.683C26.8774 132.042 25.8155 132.221 24.6544 132.221C23.0308 132.221 21.6621 131.886 20.5482 131.216C19.4438 130.545 18.6084 129.616 18.042 128.426C17.4757 127.237 17.1925 125.868 17.1925 124.32C17.1925 122.829 17.4709 121.484 18.0279 120.285C18.5848 119.086 19.3872 118.137 20.435 117.439C21.4827 116.731 22.7476 116.377 24.2296 116.377C25.6078 116.377 26.7972 116.679 27.7978 117.283C28.7984 117.887 29.5724 118.756 30.1199 119.888C30.6674 121.012 30.9412 122.366 30.9412 123.952C30.9412 124.207 30.9317 124.466 30.9128 124.731C30.9034 124.995 30.8892 125.231 30.8704 125.439H21.0296ZM24.2438 119.01C23.3376 119.01 22.5919 119.336 22.0066 119.987C21.4308 120.629 21.091 121.649 20.9872 123.046H27.3022C27.2833 121.781 27.019 120.794 26.5093 120.086C26.009 119.369 25.2538 119.01 24.2438 119.01Z" fill="black"/>
<path d="M48.4027 116.802L43.2487 131.796H38.8593L33.677 116.802H37.6982L41.1106 128.809L44.5938 116.802H48.4027Z" fill="black"/>
<path d="M77.4071 116.802V129.148H81.3575V131.796H69.2796V129.148H73.669V119.449H69.4212V116.802H77.4071ZM74.9858 109.24C75.6749 109.24 76.2319 109.453 76.6566 109.878C77.0909 110.302 77.308 110.831 77.308 111.463C77.308 112.096 77.0909 112.629 76.6566 113.063C76.2319 113.488 75.6749 113.701 74.9858 113.701C74.2968 113.701 73.7351 113.488 73.3009 113.063C72.8667 112.629 72.6496 112.096 72.6496 111.463C72.6496 110.831 72.8667 110.302 73.3009 109.878C73.7351 109.453 74.2968 109.24 74.9858 109.24Z" fill="black"/>
<path d="M85.7642 131.796V116.802H89.0208L89.2898 118.656C89.9317 117.901 90.6538 117.335 91.4562 116.957C92.2585 116.57 93.1223 116.377 94.0473 116.377C95.3972 116.377 96.4261 116.769 97.1341 117.552C97.842 118.326 98.196 119.416 98.196 120.823V131.796H94.458V122.281C94.458 121.526 94.4108 120.922 94.3164 120.469C94.222 120.006 94.0426 119.676 93.7783 119.478C93.514 119.27 93.1317 119.166 92.6314 119.166C92.2255 119.166 91.8338 119.256 91.4562 119.435C91.088 119.615 90.7388 119.855 90.4084 120.157C90.0875 120.459 89.7854 120.794 89.5022 121.163V131.796H85.7642Z" fill="black"/>
<path d="M111.367 116.802V129.148H115.318V131.796H103.24V129.148H107.629V119.449H103.381V116.802H111.367ZM108.946 109.24C109.635 109.24 110.192 109.453 110.617 109.878C111.051 110.302 111.268 110.831 111.268 111.463C111.268 112.096 111.051 112.629 110.617 113.063C110.192 113.488 109.635 113.701 108.946 113.701C108.257 113.701 107.695 113.488 107.261 113.063C106.827 112.629 106.61 112.096 106.61 111.463C106.61 110.831 106.827 110.302 107.261 109.878C107.695 109.453 108.257 109.24 108.946 109.24Z" fill="black"/>
<path d="M132.666 130.961C132.109 131.329 131.434 131.631 130.641 131.867C129.848 132.103 128.989 132.221 128.064 132.221C126.233 132.221 124.855 131.749 123.93 130.805C123.005 129.852 122.542 128.587 122.542 127.01V119.449H119.285V116.802H122.542V113.502L126.28 113.049V116.802H131.236L130.854 119.449H126.28V126.996C126.28 127.77 126.469 128.337 126.846 128.695C127.224 129.054 127.833 129.233 128.673 129.233C129.211 129.233 129.702 129.172 130.146 129.049C130.599 128.917 131.009 128.752 131.377 128.554L132.666 130.961Z" fill="black"/>
<path d="M135.841 137.021V134.005H150V137.021H135.841Z" fill="black"/>
</svg>
